# xmcd CD database file
#
# Track frame offsets:
#	150
#	16893
#	27997
#	47094
#	68459
#	85954
#	104682
#	117850
#	151594
#	162841
#	179487
#	195001
#
# Disc length: 2815 seconds
#
# Revision: 1
# Processed by: cddbd v1.5.1PL2 Copyright (c) Steve Scherf et al.
# Submitted via: jetAudio 5
#
DISCID=880afd0c
DTITLE=Marshall Law - I'M A Blues Man
DYEAR=1998
DGENRE=Blues
TTITLE0=Baby Got it Goin' On
TTITLE1=Quit My Job
TTITLE2=Drinkin' My Blues Away
TTITLE3=Way Down There
TTITLE4=I'm A Blues Man
TTITLE5=Me and My Woman
TTITLE6=Jelly
TTITLE7=Cryin
TTITLE8=I'm Mad
TTITLE9=I Love You Baby
TTITLE10=Cool I Know The Rule
TTITLE11=Perpetual Blues Machine
EXTD=Sam Marshall's Band CD was made in 1998
EXTT0=written by Sam Marshall
EXTT1=written by Sam Marshall
EXTT2=written by Sam Marshall
EXTT3=written by J. Kubek
EXTT4=written by Sam Marshall
EXTT5=written by S. Otis
EXTT6=written by Sam Marshall
EXTT7=written by Sam Marshall
EXTT8=written by Sam Marshall
EXTT9=written by Sam Marshall
EXTT10=written by A. Collins
EXTT11=written by Keb Mo
PLAYORDER=
